Coordinates
nRows=8
nColumns=34

# SIMM Motion File Header:
name Coordinates
datacolumns 34
datarows 8
otherdata 1
range 0.30000000 0.30700000

Units are S.I. units (second, meters, Newtons, ...)
Angles are in degrees.

endheader
time	pelvis_tz	pelvis_tx	pelvis_ty	pelvis_tilt	pelvis_list	pelvis_rotation	hip_flexion_r	hip_adduction_r	hip_rotation_r	knee_r_tx	knee_r_ty	knee_angle_r	tib_pat_r_tx	tib_pat_r_ty	tib_pat_r_r1	ankle_angle_r	subtalar_angle_r	mtp_angle_r	hip_flexion_l	hip_adduction_l	hip_rotation_l	knee_l_tx	knee_l_ty	knee_angle_l	tib_pat_l_tx	tib_pat_l_ty	tib_pat_l_r1	ankle_angle_l	subtalar_angle_l	mtp_angle_l	lumbar_extension	lumbar_bending	lumbar_rotation
      0.30000000	     -0.25380821	      0.14527701	      0.92709098	     -1.71246857	      2.78489436	     -3.01652650	      1.78073212	     -0.46460355	     16.92885874	     -0.00405515	     -0.41352486	     -5.17753229	      0.04600959	     -0.02110126	      5.42071978	      8.20053292	     -0.00000000	      0.00000000	     17.31545155	      3.39873032	     -1.14127330	      0.00418575	     -0.42282999	    -58.53766274	      0.03600331	     -0.01912987	     17.36490396	      1.79803819	     -0.00000000	      0.00000000	     -2.23377893	      0.78191501	      2.97394449
      0.30100000	     -0.25377055	      0.14620404	      0.92711164	     -1.70101968	      2.82595819	     -3.02826598	      1.68935028	     -0.51012049	     16.93846412	     -0.00406000	     -0.41352215	     -5.14433635	      0.04601399	     -0.02110276	      5.39075553	      8.24351530	     -0.00000000	      0.00000000	     17.40914302	      3.42174064	     -1.16613822	      0.00417654	     -0.42279393	    -58.40324819	      0.03603613	     -0.01913399	     17.36173564	      1.88682787	     -0.00000000	      0.00000000	     -2.25512781	      0.72485176	      2.99343836
      0.30200000	     -0.25373441	      0.14713072	      0.92713084	     -1.68965377	      2.86637748	     -3.03967373	      1.59809025	     -0.55509465	     16.94737663	     -0.00406483	     -0.41351945	     -5.11124291	      0.04601836	     -0.02110424	      5.36082068	      8.28639951	     -0.00000000	      0.00000000	     17.50218723	      3.44441000	     -1.19046376	      0.00416706	     -0.42275727	    -58.26638886	      0.03606952	     -0.01913819	     17.35847044	      1.97403857	     -0.00000000	      0.00000000	     -2.27645429	      0.66873686	      3.01230466
      0.30300000	     -0.25369980	      0.14805708	      0.92714859	     -1.67837572	      2.90613684	     -3.05074751	      1.50695749	     -0.59950738	     16.95559806	     -0.00406964	     -0.41351676	     -5.07825740	      0.04602269	     -0.02110571	      5.33092064	      8.32919051	     -0.00000000	      0.00000000	     17.59458687	      3.46672715	     -1.21423647	      0.00415731	     -0.42272000	    -58.12710438	      0.03610347	     -0.01914247	     17.35510647	      2.05967613	     -0.00000000	      0.00000000	     -2.29775542	      0.61359094	      3.03054830
      0.30400000	     -0.25366675	      0.14898311	      0.92716485	     -1.66719038	      2.94522115	     -3.06148523	      1.41595750	     -0.64334027	     16.96313073	     -0.00407441	     -0.41351408	     -5.04538522	      0.04602700	     -0.02110718	      5.30106090	      8.37189340	     -0.00000000	      0.00000000	     17.68634462	      3.48868105	     -1.23744260	      0.00414728	     -0.42268214	    -57.98541402	      0.03613797	     -0.01914682	     17.35164178	      2.14374718	     -0.00000000	      0.00000000	     -2.31902829	      0.55943421	      3.04817457
      0.30500000	     -0.25363525	      0.14990881	      0.92717962	     -1.65610260	      2.98361553	     -3.07188502	      1.32509580	     -0.68657513	     16.96997747	     -0.00407916	     -0.41351141	     -5.01263181	      0.04603128	     -0.02110863	      5.27124696	      8.41451341	     -0.00000000	      0.00000000	     17.77746312	      3.51026087	     -1.26006808	      0.00413697	     -0.42264369	    -57.84133664	      0.03617302	     -0.01915125	     17.34807436	      2.22625911	     -0.00000000	      0.00000000	     -2.34027000	      0.50628648	      3.06518911
      0.30600000	     -0.25360532	      0.15083418	      0.92719288	     -1.64511717	      3.02130538	     -3.08194515	      1.23437789	     -0.72919399	     16.97614165	     -0.00408388	     -0.41350876	     -4.98000260	      0.04603552	     -0.02111007	      5.24148440	      8.45705590	     -0.00000000	      0.00000000	     17.86794502	      3.53145601	     -1.28209855	      0.00412637	     -0.42260466	    -57.69489066	      0.03620861	     -0.01915575	     17.34440214	      2.30722001	     -0.00000000	      0.00000000	     -2.36147768	      0.45416716	      3.08159781
      0.30700000	     -0.25357698	      0.15175924	      0.92720461	     -1.63423885	      3.05827635	     -3.09166405	      1.14380926	     -0.77117911	     16.98162711	     -0.00408858	     -0.41350612	     -4.94750302	      0.04603973	     -0.02111150	      5.21177880	      8.49952639	     -0.00000000	      0.00000000	     17.95779288	      3.55225602	     -1.30351936	      0.00411548	     -0.42256506	    -57.54609414	      0.03624473	     -0.01916033	     17.34062302	      2.38663870	     -0.00000000	      0.00000000	     -2.38264847	      0.40309527	      3.09740675
